<svg xmlns="http://www.w3.org/2000/svg" width="980" height="600" viewBox="0 0 980 600">
<rect width="100%" height="100%" fill="#ffffff"/>
<text x="32.0" y="38.0" font-family="Arial, sans-serif" font-size="24" font-weight="700" text-anchor="start" fill="#111827">Analisi 3.1 - tempi di esecuzione</text>
<text x="32.0" y="64.0" font-family="Arial, sans-serif" font-size="14" font-weight="400" text-anchor="start" fill="#111827">Confronto AWS EMR unificato tra benchmark sample e dataset scalati</text>
<line x1="82" y1="472.0" x2="938" y2="472.0" stroke="#e5e7eb"/>
<text x="72.0" y="476.0" font-family="Arial, sans-serif" font-size="12" font-weight="400" text-anchor="end" fill="#111827">0.0s</text>
<line x1="82" y1="396.8" x2="938" y2="396.8" stroke="#e5e7eb"/>
<text x="72.0" y="400.8" font-family="Arial, sans-serif" font-size="12" font-weight="400" text-anchor="end" fill="#111827">36.3s</text>
<line x1="82" y1="321.6" x2="938" y2="321.6" stroke="#e5e7eb"/>
<text x="72.0" y="325.6" font-family="Arial, sans-serif" font-size="12" font-weight="400" text-anchor="end" fill="#111827">72.5s</text>
<line x1="82" y1="246.4" x2="938" y2="246.4" stroke="#e5e7eb"/>
<text x="72.0" y="250.4" font-family="Arial, sans-serif" font-size="12" font-weight="400" text-anchor="end" fill="#111827">108.8s</text>
<line x1="82" y1="171.2" x2="938" y2="171.2" stroke="#e5e7eb"/>
<text x="72.0" y="175.2" font-family="Arial, sans-serif" font-size="12" font-weight="400" text-anchor="end" fill="#111827">145.0s</text>
<line x1="82" y1="96.0" x2="938" y2="96.0" stroke="#e5e7eb"/>
<text x="72.0" y="100.0" font-family="Arial, sans-serif" font-size="12" font-weight="400" text-anchor="end" fill="#111827">181.3s</text>
<line x1="82" y1="472" x2="938" y2="472" stroke="#9ca3af"/>
<line x1="82" y1="96" x2="82" y2="472" stroke="#9ca3af"/>
<line x1="82.0" y1="472" x2="82.0" y2="478" stroke="#9ca3af"/>
<text x="82.0" y="500.0" font-family="Arial, sans-serif" font-size="13" font-weight="400" text-anchor="middle" fill="#111827">100k</text>
<line x1="224.7" y1="472" x2="224.7" y2="478" stroke="#9ca3af"/>
<text x="224.7" y="500.0" font-family="Arial, sans-serif" font-size="13" font-weight="400" text-anchor="middle" fill="#111827">500k</text>
<line x1="367.3" y1="472" x2="367.3" y2="478" stroke="#9ca3af"/>
<text x="367.3" y="500.0" font-family="Arial, sans-serif" font-size="13" font-weight="400" text-anchor="middle" fill="#111827">half</text>
<line x1="510.0" y1="472" x2="510.0" y2="478" stroke="#9ca3af"/>
<text x="510.0" y="500.0" font-family="Arial, sans-serif" font-size="13" font-weight="400" text-anchor="middle" fill="#111827">full</text>
<line x1="652.7" y1="472" x2="652.7" y2="478" stroke="#9ca3af"/>
<text x="652.7" y="500.0" font-family="Arial, sans-serif" font-size="13" font-weight="400" text-anchor="middle" fill="#111827">1x</text>
<line x1="795.3" y1="472" x2="795.3" y2="478" stroke="#9ca3af"/>
<text x="795.3" y="500.0" font-family="Arial, sans-serif" font-size="13" font-weight="400" text-anchor="middle" fill="#111827">2x</text>
<line x1="938.0" y1="472" x2="938.0" y2="478" stroke="#9ca3af"/>
<text x="938.0" y="500.0" font-family="Arial, sans-serif" font-size="13" font-weight="400" text-anchor="middle" fill="#111827">4x</text>
<path d="M 82.0 153.4 L 224.7 337.1 L 367.3 323.4 L 510.0 310.2 L 652.7 326.8 L 795.3 329.1 L 938.0 320.1" fill="none" stroke="#2563eb" stroke-width="3" stroke-linejoin="round" stroke-linecap="round"/>
<circle cx="82.0" cy="153.4" r="5" fill="#ffffff" stroke="#2563eb" stroke-width="3"/>
<text x="82.0" y="141.4" font-family="Arial, sans-serif" font-size="11" font-weight="400" text-anchor="middle" fill="#111827">153.7s</text>
<circle cx="224.7" cy="337.1" r="5" fill="#ffffff" stroke="#2563eb" stroke-width="3"/>
<text x="224.7" y="325.1" font-family="Arial, sans-serif" font-size="11" font-weight="400" text-anchor="middle" fill="#111827">65.1s</text>
<circle cx="367.3" cy="323.4" r="5" fill="#ffffff" stroke="#2563eb" stroke-width="3"/>
<text x="367.3" y="311.4" font-family="Arial, sans-serif" font-size="11" font-weight="400" text-anchor="middle" fill="#111827">71.6s</text>
<circle cx="510.0" cy="310.2" r="5" fill="#ffffff" stroke="#2563eb" stroke-width="3"/>
<text x="510.0" y="298.2" font-family="Arial, sans-serif" font-size="11" font-weight="400" text-anchor="middle" fill="#111827">78.0s</text>
<circle cx="652.7" cy="326.8" r="5" fill="#ffffff" stroke="#2563eb" stroke-width="3"/>
<text x="652.7" y="314.8" font-family="Arial, sans-serif" font-size="11" font-weight="400" text-anchor="middle" fill="#111827">70.0s</text>
<circle cx="795.3" cy="329.1" r="5" fill="#ffffff" stroke="#2563eb" stroke-width="3"/>
<text x="795.3" y="317.1" font-family="Arial, sans-serif" font-size="11" font-weight="400" text-anchor="middle" fill="#111827">68.9s</text>
<circle cx="938.0" cy="320.1" r="5" fill="#ffffff" stroke="#2563eb" stroke-width="3"/>
<text x="938.0" y="308.1" font-family="Arial, sans-serif" font-size="11" font-weight="400" text-anchor="middle" fill="#111827">73.2s</text>
<path d="M 82.0 365.0 L 224.7 389.0 L 367.3 279.1 L 510.0 342.7 L 652.7 317.0 L 795.3 315.8 L 938.0 208.1" fill="none" stroke="#dc2626" stroke-width="3" stroke-linejoin="round" stroke-linecap="round"/>
<circle cx="82.0" cy="365.0" r="5" fill="#ffffff" stroke="#dc2626" stroke-width="3"/>
<text x="82.0" y="353.0" font-family="Arial, sans-serif" font-size="11" font-weight="400" text-anchor="middle" fill="#111827">51.6s</text>
<circle cx="224.7" cy="389.0" r="5" fill="#ffffff" stroke="#dc2626" stroke-width="3"/>
<text x="224.7" y="377.0" font-family="Arial, sans-serif" font-size="11" font-weight="400" text-anchor="middle" fill="#111827">40.0s</text>
<circle cx="367.3" cy="279.1" r="5" fill="#ffffff" stroke="#dc2626" stroke-width="3"/>
<text x="367.3" y="267.1" font-family="Arial, sans-serif" font-size="11" font-weight="400" text-anchor="middle" fill="#111827">93.0s</text>
<circle cx="510.0" cy="342.7" r="5" fill="#ffffff" stroke="#dc2626" stroke-width="3"/>
<text x="510.0" y="330.7" font-family="Arial, sans-serif" font-size="11" font-weight="400" text-anchor="middle" fill="#111827">62.3s</text>
<circle cx="652.7" cy="317.0" r="5" fill="#ffffff" stroke="#dc2626" stroke-width="3"/>
<text x="652.7" y="305.0" font-family="Arial, sans-serif" font-size="11" font-weight="400" text-anchor="middle" fill="#111827">74.7s</text>
<circle cx="795.3" cy="315.8" r="5" fill="#ffffff" stroke="#dc2626" stroke-width="3"/>
<text x="795.3" y="303.8" font-family="Arial, sans-serif" font-size="11" font-weight="400" text-anchor="middle" fill="#111827">75.3s</text>
<circle cx="938.0" cy="208.1" r="5" fill="#ffffff" stroke="#dc2626" stroke-width="3"/>
<text x="938.0" y="196.1" font-family="Arial, sans-serif" font-size="11" font-weight="400" text-anchor="middle" fill="#111827">127.3s</text>
<path d="M 82.0 394.3 L 224.7 387.1 L 367.3 386.0 L 510.0 331.8 L 652.7 378.3 L 795.3 363.1 L 938.0 356.6" fill="none" stroke="#16a34a" stroke-width="3" stroke-linejoin="round" stroke-linecap="round"/>
<circle cx="82.0" cy="394.3" r="5" fill="#ffffff" stroke="#16a34a" stroke-width="3"/>
<text x="82.0" y="382.3" font-family="Arial, sans-serif" font-size="11" font-weight="400" text-anchor="middle" fill="#111827">37.4s</text>
<circle cx="224.7" cy="387.1" r="5" fill="#ffffff" stroke="#16a34a" stroke-width="3"/>
<text x="224.7" y="375.1" font-family="Arial, sans-serif" font-size="11" font-weight="400" text-anchor="middle" fill="#111827">40.9s</text>
<circle cx="367.3" cy="386.0" r="5" fill="#ffffff" stroke="#16a34a" stroke-width="3"/>
<text x="367.3" y="374.0" font-family="Arial, sans-serif" font-size="11" font-weight="400" text-anchor="middle" fill="#111827">41.4s</text>
<circle cx="510.0" cy="331.8" r="5" fill="#ffffff" stroke="#16a34a" stroke-width="3"/>
<text x="510.0" y="319.8" font-family="Arial, sans-serif" font-size="11" font-weight="400" text-anchor="middle" fill="#111827">67.6s</text>
<circle cx="652.7" cy="378.3" r="5" fill="#ffffff" stroke="#16a34a" stroke-width="3"/>
<text x="652.7" y="366.3" font-family="Arial, sans-serif" font-size="11" font-weight="400" text-anchor="middle" fill="#111827">45.2s</text>
<circle cx="795.3" cy="363.1" r="5" fill="#ffffff" stroke="#16a34a" stroke-width="3"/>
<text x="795.3" y="351.1" font-family="Arial, sans-serif" font-size="11" font-weight="400" text-anchor="middle" fill="#111827">52.5s</text>
<circle cx="938.0" cy="356.6" r="5" fill="#ffffff" stroke="#16a34a" stroke-width="3"/>
<text x="938.0" y="344.6" font-family="Arial, sans-serif" font-size="11" font-weight="400" text-anchor="middle" fill="#111827">55.7s</text>
<line x1="82" y1="559" x2="98" y2="559" stroke="#2563eb" stroke-width="3" stroke-linecap="round"/>
<circle cx="90" cy="559" r="4" fill="#ffffff" stroke="#2563eb" stroke-width="2"/>
<text x="104.0" y="566.0" font-family="Arial, sans-serif" font-size="13" font-weight="400" text-anchor="start" fill="#111827">Spark SQL</text>
<line x1="232" y1="559" x2="248" y2="559" stroke="#dc2626" stroke-width="3" stroke-linecap="round"/>
<circle cx="240" cy="559" r="4" fill="#ffffff" stroke="#dc2626" stroke-width="2"/>
<text x="254.0" y="566.0" font-family="Arial, sans-serif" font-size="13" font-weight="400" text-anchor="start" fill="#111827">Spark Core</text>
<line x1="382" y1="559" x2="398" y2="559" stroke="#16a34a" stroke-width="3" stroke-linecap="round"/>
<circle cx="390" cy="559" r="4" fill="#ffffff" stroke="#16a34a" stroke-width="2"/>
<text x="404.0" y="566.0" font-family="Arial, sans-serif" font-size="13" font-weight="400" text-anchor="start" fill="#111827">Hive</text>
<text x="490.0" y="536.0" font-family="Arial, sans-serif" font-size="13" font-weight="700" text-anchor="middle" fill="#111827">Sample benchmark e fattore scala</text>
<text x="18" y="300" font-family="Arial, sans-serif" font-size="13" font-weight="700" text-anchor="middle" fill="#111827" transform="rotate(-90 18 300)">Tempo esecuzione</text>
</svg>