<svg xmlns="http://www.w3.org/2000/svg" width="980" height="600" viewBox="0 0 980 600">
<rect width="100%" height="100%" fill="#ffffff"/>
<text x="32.0" y="38.0" font-family="Arial, sans-serif" font-size="24" font-weight="700" text-anchor="start" fill="#111827">Analisi 3.2 - tempi di esecuzione</text>
<text x="32.0" y="64.0" font-family="Arial, sans-serif" font-size="14" font-weight="400" text-anchor="start" fill="#111827">Confronto unificato tra benchmark sample e dataset scalati</text>
<line x1="82" y1="472.0" x2="938" y2="472.0" stroke="#e5e7eb"/>
<text x="72.0" y="476.0" font-family="Arial, sans-serif" font-size="12" font-weight="400" text-anchor="end" fill="#111827">0.0s</text>
<line x1="82" y1="396.8" x2="938" y2="396.8" stroke="#e5e7eb"/>
<text x="72.0" y="400.8" font-family="Arial, sans-serif" font-size="12" font-weight="400" text-anchor="end" fill="#111827">197.0s</text>
<line x1="82" y1="321.6" x2="938" y2="321.6" stroke="#e5e7eb"/>
<text x="72.0" y="325.6" font-family="Arial, sans-serif" font-size="12" font-weight="400" text-anchor="end" fill="#111827">394.1s</text>
<line x1="82" y1="246.4" x2="938" y2="246.4" stroke="#e5e7eb"/>
<text x="72.0" y="250.4" font-family="Arial, sans-serif" font-size="12" font-weight="400" text-anchor="end" fill="#111827">591.1s</text>
<line x1="82" y1="171.2" x2="938" y2="171.2" stroke="#e5e7eb"/>
<text x="72.0" y="175.2" font-family="Arial, sans-serif" font-size="12" font-weight="400" text-anchor="end" fill="#111827">788.2s</text>
<line x1="82" y1="96.0" x2="938" y2="96.0" stroke="#e5e7eb"/>
<text x="72.0" y="100.0" font-family="Arial, sans-serif" font-size="12" font-weight="400" text-anchor="end" fill="#111827">985.2s</text>
<line x1="82" y1="472" x2="938" y2="472" stroke="#9ca3af"/>
<line x1="82" y1="96" x2="82" y2="472" stroke="#9ca3af"/>
<line x1="82.0" y1="472" x2="82.0" y2="478" stroke="#9ca3af"/>
<text x="82.0" y="500.0" font-family="Arial, sans-serif" font-size="13" font-weight="400" text-anchor="middle" fill="#111827">100k</text>
<line x1="224.7" y1="472" x2="224.7" y2="478" stroke="#9ca3af"/>
<text x="224.7" y="500.0" font-family="Arial, sans-serif" font-size="13" font-weight="400" text-anchor="middle" fill="#111827">500k</text>
<line x1="367.3" y1="472" x2="367.3" y2="478" stroke="#9ca3af"/>
<text x="367.3" y="500.0" font-family="Arial, sans-serif" font-size="13" font-weight="400" text-anchor="middle" fill="#111827">half</text>
<line x1="510.0" y1="472" x2="510.0" y2="478" stroke="#9ca3af"/>
<text x="510.0" y="500.0" font-family="Arial, sans-serif" font-size="13" font-weight="400" text-anchor="middle" fill="#111827">full</text>
<line x1="652.7" y1="472" x2="652.7" y2="478" stroke="#9ca3af"/>
<text x="652.7" y="500.0" font-family="Arial, sans-serif" font-size="13" font-weight="400" text-anchor="middle" fill="#111827">1x</text>
<line x1="795.3" y1="472" x2="795.3" y2="478" stroke="#9ca3af"/>
<text x="795.3" y="500.0" font-family="Arial, sans-serif" font-size="13" font-weight="400" text-anchor="middle" fill="#111827">2x</text>
<line x1="938.0" y1="472" x2="938.0" y2="478" stroke="#9ca3af"/>
<text x="938.0" y="500.0" font-family="Arial, sans-serif" font-size="13" font-weight="400" text-anchor="middle" fill="#111827">4x</text>
<path d="M 82.0 453.1 L 224.7 453.6 L 367.3 453.7 L 510.0 449.5 L 652.7 445.9 L 795.3 443.9 L 938.0 445.3" fill="none" stroke="#2563eb" stroke-width="3" stroke-linejoin="round" stroke-linecap="round"/>
<circle cx="82.0" cy="453.1" r="5" fill="#ffffff" stroke="#2563eb" stroke-width="3"/>
<text x="82.0" y="441.1" font-family="Arial, sans-serif" font-size="11" font-weight="400" text-anchor="middle" fill="#111827">49.5s</text>
<circle cx="224.7" cy="453.6" r="5" fill="#ffffff" stroke="#2563eb" stroke-width="3"/>
<text x="224.7" y="441.6" font-family="Arial, sans-serif" font-size="11" font-weight="400" text-anchor="middle" fill="#111827">48.2s</text>
<circle cx="367.3" cy="453.7" r="5" fill="#ffffff" stroke="#2563eb" stroke-width="3"/>
<text x="367.3" y="441.7" font-family="Arial, sans-serif" font-size="11" font-weight="400" text-anchor="middle" fill="#111827">47.8s</text>
<circle cx="510.0" cy="449.5" r="5" fill="#ffffff" stroke="#2563eb" stroke-width="3"/>
<text x="510.0" y="437.5" font-family="Arial, sans-serif" font-size="11" font-weight="400" text-anchor="middle" fill="#111827">59.0s</text>
<circle cx="652.7" cy="445.9" r="5" fill="#ffffff" stroke="#2563eb" stroke-width="3"/>
<text x="652.7" y="433.9" font-family="Arial, sans-serif" font-size="11" font-weight="400" text-anchor="middle" fill="#111827">68.4s</text>
<circle cx="795.3" cy="443.9" r="5" fill="#ffffff" stroke="#2563eb" stroke-width="3"/>
<text x="795.3" y="431.9" font-family="Arial, sans-serif" font-size="11" font-weight="400" text-anchor="middle" fill="#111827">73.6s</text>
<circle cx="938.0" cy="445.3" r="5" fill="#ffffff" stroke="#2563eb" stroke-width="3"/>
<text x="938.0" y="433.3" font-family="Arial, sans-serif" font-size="11" font-weight="400" text-anchor="middle" fill="#111827">70.0s</text>
<path d="M 82.0 461.4 L 224.7 456.5 L 367.3 408.4 L 510.0 369.0 L 652.7 378.6 L 795.3 299.1 L 938.0 153.4" fill="none" stroke="#dc2626" stroke-width="3" stroke-linejoin="round" stroke-linecap="round"/>
<circle cx="82.0" cy="461.4" r="5" fill="#ffffff" stroke="#dc2626" stroke-width="3"/>
<text x="82.0" y="449.4" font-family="Arial, sans-serif" font-size="11" font-weight="400" text-anchor="middle" fill="#111827">27.8s</text>
<circle cx="224.7" cy="456.5" r="5" fill="#ffffff" stroke="#dc2626" stroke-width="3"/>
<text x="224.7" y="444.5" font-family="Arial, sans-serif" font-size="11" font-weight="400" text-anchor="middle" fill="#111827">40.6s</text>
<circle cx="367.3" cy="408.4" r="5" fill="#ffffff" stroke="#dc2626" stroke-width="3"/>
<text x="367.3" y="396.4" font-family="Arial, sans-serif" font-size="11" font-weight="400" text-anchor="middle" fill="#111827">166.8s</text>
<circle cx="510.0" cy="369.0" r="5" fill="#ffffff" stroke="#dc2626" stroke-width="3"/>
<text x="510.0" y="357.0" font-family="Arial, sans-serif" font-size="11" font-weight="400" text-anchor="middle" fill="#111827">269.8s</text>
<circle cx="652.7" cy="378.6" r="5" fill="#ffffff" stroke="#dc2626" stroke-width="3"/>
<text x="652.7" y="366.6" font-family="Arial, sans-serif" font-size="11" font-weight="400" text-anchor="middle" fill="#111827">244.7s</text>
<circle cx="795.3" cy="299.1" r="5" fill="#ffffff" stroke="#dc2626" stroke-width="3"/>
<text x="795.3" y="287.1" font-family="Arial, sans-serif" font-size="11" font-weight="400" text-anchor="middle" fill="#111827">453.0s</text>
<circle cx="938.0" cy="153.4" r="5" fill="#ffffff" stroke="#dc2626" stroke-width="3"/>
<text x="938.0" y="141.4" font-family="Arial, sans-serif" font-size="11" font-weight="400" text-anchor="middle" fill="#111827">834.9s</text>
<path d="M 82.0 465.9 L 224.7 463.1 L 367.3 462.6 L 510.0 457.6 L 652.7 458.8 L 795.3 453.8 L 938.0 442.1" fill="none" stroke="#16a34a" stroke-width="3" stroke-linejoin="round" stroke-linecap="round"/>
<circle cx="82.0" cy="465.9" r="5" fill="#ffffff" stroke="#16a34a" stroke-width="3"/>
<text x="82.0" y="453.9" font-family="Arial, sans-serif" font-size="11" font-weight="400" text-anchor="middle" fill="#111827">16.0s</text>
<circle cx="224.7" cy="463.1" r="5" fill="#ffffff" stroke="#16a34a" stroke-width="3"/>
<text x="224.7" y="451.1" font-family="Arial, sans-serif" font-size="11" font-weight="400" text-anchor="middle" fill="#111827">23.4s</text>
<circle cx="367.3" cy="462.6" r="5" fill="#ffffff" stroke="#16a34a" stroke-width="3"/>
<text x="367.3" y="450.6" font-family="Arial, sans-serif" font-size="11" font-weight="400" text-anchor="middle" fill="#111827">24.5s</text>
<circle cx="510.0" cy="457.6" r="5" fill="#ffffff" stroke="#16a34a" stroke-width="3"/>
<text x="510.0" y="445.6" font-family="Arial, sans-serif" font-size="11" font-weight="400" text-anchor="middle" fill="#111827">37.6s</text>
<circle cx="652.7" cy="458.8" r="5" fill="#ffffff" stroke="#16a34a" stroke-width="3"/>
<text x="652.7" y="446.8" font-family="Arial, sans-serif" font-size="11" font-weight="400" text-anchor="middle" fill="#111827">34.5s</text>
<circle cx="795.3" cy="453.8" r="5" fill="#ffffff" stroke="#16a34a" stroke-width="3"/>
<text x="795.3" y="441.8" font-family="Arial, sans-serif" font-size="11" font-weight="400" text-anchor="middle" fill="#111827">47.6s</text>
<circle cx="938.0" cy="442.1" r="5" fill="#ffffff" stroke="#16a34a" stroke-width="3"/>
<text x="938.0" y="430.1" font-family="Arial, sans-serif" font-size="11" font-weight="400" text-anchor="middle" fill="#111827">78.3s</text>
<line x1="82" y1="559" x2="98" y2="559" stroke="#2563eb" stroke-width="3" stroke-linecap="round"/>
<circle cx="90" cy="559" r="4" fill="#ffffff" stroke="#2563eb" stroke-width="2"/>
<text x="104.0" y="566.0" font-family="Arial, sans-serif" font-size="13" font-weight="400" text-anchor="start" fill="#111827">Spark SQL</text>
<line x1="232" y1="559" x2="248" y2="559" stroke="#dc2626" stroke-width="3" stroke-linecap="round"/>
<circle cx="240" cy="559" r="4" fill="#ffffff" stroke="#dc2626" stroke-width="2"/>
<text x="254.0" y="566.0" font-family="Arial, sans-serif" font-size="13" font-weight="400" text-anchor="start" fill="#111827">Spark Core</text>
<line x1="382" y1="559" x2="398" y2="559" stroke="#16a34a" stroke-width="3" stroke-linecap="round"/>
<circle cx="390" cy="559" r="4" fill="#ffffff" stroke="#16a34a" stroke-width="2"/>
<text x="404.0" y="566.0" font-family="Arial, sans-serif" font-size="13" font-weight="400" text-anchor="start" fill="#111827">Hive</text>
<text x="490.0" y="536.0" font-family="Arial, sans-serif" font-size="13" font-weight="700" text-anchor="middle" fill="#111827">Sample benchmark e fattore scala</text>
<text x="18" y="300" font-family="Arial, sans-serif" font-size="13" font-weight="700" text-anchor="middle" fill="#111827" transform="rotate(-90 18 300)">Tempo esecuzione</text>
</svg>