<svg xmlns="http://www.w3.org/2000/svg" width="980" height="600" viewBox="0 0 980 600">
<rect width="100%" height="100%" fill="#ffffff"/>
<text x="32.0" y="38.0" font-family="Arial, sans-serif" font-size="24" font-weight="700" text-anchor="start" fill="#111827">Analisi 3.1 - tempi di esecuzione</text>
<text x="32.0" y="64.0" font-family="Arial, sans-serif" font-size="14" font-weight="400" text-anchor="start" fill="#111827">Confronto unificato tra benchmark sample e dataset scalati</text>
<line x1="82" y1="472.0" x2="938" y2="472.0" stroke="#e5e7eb"/>
<text x="72.0" y="476.0" font-family="Arial, sans-serif" font-size="12" font-weight="400" text-anchor="end" fill="#111827">0.0s</text>
<line x1="82" y1="396.8" x2="938" y2="396.8" stroke="#e5e7eb"/>
<text x="72.0" y="400.8" font-family="Arial, sans-serif" font-size="12" font-weight="400" text-anchor="end" fill="#111827">116.3s</text>
<line x1="82" y1="321.6" x2="938" y2="321.6" stroke="#e5e7eb"/>
<text x="72.0" y="325.6" font-family="Arial, sans-serif" font-size="12" font-weight="400" text-anchor="end" fill="#111827">232.6s</text>
<line x1="82" y1="246.4" x2="938" y2="246.4" stroke="#e5e7eb"/>
<text x="72.0" y="250.4" font-family="Arial, sans-serif" font-size="12" font-weight="400" text-anchor="end" fill="#111827">348.8s</text>
<line x1="82" y1="171.2" x2="938" y2="171.2" stroke="#e5e7eb"/>
<text x="72.0" y="175.2" font-family="Arial, sans-serif" font-size="12" font-weight="400" text-anchor="end" fill="#111827">465.1s</text>
<line x1="82" y1="96.0" x2="938" y2="96.0" stroke="#e5e7eb"/>
<text x="72.0" y="100.0" font-family="Arial, sans-serif" font-size="12" font-weight="400" text-anchor="end" fill="#111827">581.4s</text>
<line x1="82" y1="472" x2="938" y2="472" stroke="#9ca3af"/>
<line x1="82" y1="96" x2="82" y2="472" stroke="#9ca3af"/>
<line x1="82.0" y1="472" x2="82.0" y2="478" stroke="#9ca3af"/>
<text x="82.0" y="500.0" font-family="Arial, sans-serif" font-size="13" font-weight="400" text-anchor="middle" fill="#111827">100k</text>
<line x1="224.7" y1="472" x2="224.7" y2="478" stroke="#9ca3af"/>
<text x="224.7" y="500.0" font-family="Arial, sans-serif" font-size="13" font-weight="400" text-anchor="middle" fill="#111827">500k</text>
<line x1="367.3" y1="472" x2="367.3" y2="478" stroke="#9ca3af"/>
<text x="367.3" y="500.0" font-family="Arial, sans-serif" font-size="13" font-weight="400" text-anchor="middle" fill="#111827">half</text>
<line x1="510.0" y1="472" x2="510.0" y2="478" stroke="#9ca3af"/>
<text x="510.0" y="500.0" font-family="Arial, sans-serif" font-size="13" font-weight="400" text-anchor="middle" fill="#111827">full</text>
<line x1="652.7" y1="472" x2="652.7" y2="478" stroke="#9ca3af"/>
<text x="652.7" y="500.0" font-family="Arial, sans-serif" font-size="13" font-weight="400" text-anchor="middle" fill="#111827">1x</text>
<line x1="795.3" y1="472" x2="795.3" y2="478" stroke="#9ca3af"/>
<text x="795.3" y="500.0" font-family="Arial, sans-serif" font-size="13" font-weight="400" text-anchor="middle" fill="#111827">2x</text>
<line x1="938.0" y1="472" x2="938.0" y2="478" stroke="#9ca3af"/>
<text x="938.0" y="500.0" font-family="Arial, sans-serif" font-size="13" font-weight="400" text-anchor="middle" fill="#111827">4x</text>
<path d="M 82.0 440.7 L 224.7 441.3 L 367.3 437.7 L 510.0 437.9 L 652.7 389.1 L 795.3 407.5 L 938.0 400.9" fill="none" stroke="#2563eb" stroke-width="3" stroke-linejoin="round" stroke-linecap="round"/>
<circle cx="82.0" cy="440.7" r="5" fill="#ffffff" stroke="#2563eb" stroke-width="3"/>
<text x="82.0" y="428.7" font-family="Arial, sans-serif" font-size="11" font-weight="400" text-anchor="middle" fill="#111827">48.4s</text>
<circle cx="224.7" cy="441.3" r="5" fill="#ffffff" stroke="#2563eb" stroke-width="3"/>
<text x="224.7" y="429.3" font-family="Arial, sans-serif" font-size="11" font-weight="400" text-anchor="middle" fill="#111827">47.5s</text>
<circle cx="367.3" cy="437.7" r="5" fill="#ffffff" stroke="#2563eb" stroke-width="3"/>
<text x="367.3" y="425.7" font-family="Arial, sans-serif" font-size="11" font-weight="400" text-anchor="middle" fill="#111827">53.1s</text>
<circle cx="510.0" cy="437.9" r="5" fill="#ffffff" stroke="#2563eb" stroke-width="3"/>
<text x="510.0" y="425.9" font-family="Arial, sans-serif" font-size="11" font-weight="400" text-anchor="middle" fill="#111827">52.7s</text>
<circle cx="652.7" cy="389.1" r="5" fill="#ffffff" stroke="#2563eb" stroke-width="3"/>
<text x="652.7" y="377.1" font-family="Arial, sans-serif" font-size="11" font-weight="400" text-anchor="middle" fill="#111827">128.2s</text>
<circle cx="795.3" cy="407.5" r="5" fill="#ffffff" stroke="#2563eb" stroke-width="3"/>
<text x="795.3" y="395.5" font-family="Arial, sans-serif" font-size="11" font-weight="400" text-anchor="middle" fill="#111827">99.7s</text>
<circle cx="938.0" cy="400.9" r="5" fill="#ffffff" stroke="#2563eb" stroke-width="3"/>
<text x="938.0" y="388.9" font-family="Arial, sans-serif" font-size="11" font-weight="400" text-anchor="middle" fill="#111827">109.9s</text>
<path d="M 82.0 459.6 L 224.7 454.1 L 367.3 416.2 L 510.0 393.7 L 652.7 367.4 L 795.3 301.9 L 938.0 153.4" fill="none" stroke="#dc2626" stroke-width="3" stroke-linejoin="round" stroke-linecap="round"/>
<circle cx="82.0" cy="459.6" r="5" fill="#ffffff" stroke="#dc2626" stroke-width="3"/>
<text x="82.0" y="447.6" font-family="Arial, sans-serif" font-size="11" font-weight="400" text-anchor="middle" fill="#111827">19.2s</text>
<circle cx="224.7" cy="454.1" r="5" fill="#ffffff" stroke="#dc2626" stroke-width="3"/>
<text x="224.7" y="442.1" font-family="Arial, sans-serif" font-size="11" font-weight="400" text-anchor="middle" fill="#111827">27.7s</text>
<circle cx="367.3" cy="416.2" r="5" fill="#ffffff" stroke="#dc2626" stroke-width="3"/>
<text x="367.3" y="404.2" font-family="Arial, sans-serif" font-size="11" font-weight="400" text-anchor="middle" fill="#111827">86.2s</text>
<circle cx="510.0" cy="393.7" r="5" fill="#ffffff" stroke="#dc2626" stroke-width="3"/>
<text x="510.0" y="381.7" font-family="Arial, sans-serif" font-size="11" font-weight="400" text-anchor="middle" fill="#111827">121.1s</text>
<circle cx="652.7" cy="367.4" r="5" fill="#ffffff" stroke="#dc2626" stroke-width="3"/>
<text x="652.7" y="355.4" font-family="Arial, sans-serif" font-size="11" font-weight="400" text-anchor="middle" fill="#111827">161.7s</text>
<circle cx="795.3" cy="301.9" r="5" fill="#ffffff" stroke="#dc2626" stroke-width="3"/>
<text x="795.3" y="289.9" font-family="Arial, sans-serif" font-size="11" font-weight="400" text-anchor="middle" fill="#111827">263.0s</text>
<circle cx="938.0" cy="153.4" r="5" fill="#ffffff" stroke="#dc2626" stroke-width="3"/>
<text x="938.0" y="141.4" font-family="Arial, sans-serif" font-size="11" font-weight="400" text-anchor="middle" fill="#111827">492.7s</text>
<path d="M 82.0 466.9 L 224.7 467.0 L 367.3 462.6 L 510.0 458.8 L 652.7 452.2 L 795.3 447.2 L 938.0 430.3" fill="none" stroke="#16a34a" stroke-width="3" stroke-linejoin="round" stroke-linecap="round"/>
<circle cx="82.0" cy="466.9" r="5" fill="#ffffff" stroke="#16a34a" stroke-width="3"/>
<text x="82.0" y="454.9" font-family="Arial, sans-serif" font-size="11" font-weight="400" text-anchor="middle" fill="#111827">7.9s</text>
<circle cx="224.7" cy="467.0" r="5" fill="#ffffff" stroke="#16a34a" stroke-width="3"/>
<text x="224.7" y="455.0" font-family="Arial, sans-serif" font-size="11" font-weight="400" text-anchor="middle" fill="#111827">7.7s</text>
<circle cx="367.3" cy="462.6" r="5" fill="#ffffff" stroke="#16a34a" stroke-width="3"/>
<text x="367.3" y="450.6" font-family="Arial, sans-serif" font-size="11" font-weight="400" text-anchor="middle" fill="#111827">14.5s</text>
<circle cx="510.0" cy="458.8" r="5" fill="#ffffff" stroke="#16a34a" stroke-width="3"/>
<text x="510.0" y="446.8" font-family="Arial, sans-serif" font-size="11" font-weight="400" text-anchor="middle" fill="#111827">20.4s</text>
<circle cx="652.7" cy="452.2" r="5" fill="#ffffff" stroke="#16a34a" stroke-width="3"/>
<text x="652.7" y="440.2" font-family="Arial, sans-serif" font-size="11" font-weight="400" text-anchor="middle" fill="#111827">30.6s</text>
<circle cx="795.3" cy="447.2" r="5" fill="#ffffff" stroke="#16a34a" stroke-width="3"/>
<text x="795.3" y="435.2" font-family="Arial, sans-serif" font-size="11" font-weight="400" text-anchor="middle" fill="#111827">38.3s</text>
<circle cx="938.0" cy="430.3" r="5" fill="#ffffff" stroke="#16a34a" stroke-width="3"/>
<text x="938.0" y="418.3" font-family="Arial, sans-serif" font-size="11" font-weight="400" text-anchor="middle" fill="#111827">64.4s</text>
<line x1="82" y1="559" x2="98" y2="559" stroke="#2563eb" stroke-width="3" stroke-linecap="round"/>
<circle cx="90" cy="559" r="4" fill="#ffffff" stroke="#2563eb" stroke-width="2"/>
<text x="104.0" y="566.0" font-family="Arial, sans-serif" font-size="13" font-weight="400" text-anchor="start" fill="#111827">Spark SQL</text>
<line x1="232" y1="559" x2="248" y2="559" stroke="#dc2626" stroke-width="3" stroke-linecap="round"/>
<circle cx="240" cy="559" r="4" fill="#ffffff" stroke="#dc2626" stroke-width="2"/>
<text x="254.0" y="566.0" font-family="Arial, sans-serif" font-size="13" font-weight="400" text-anchor="start" fill="#111827">Spark Core</text>
<line x1="382" y1="559" x2="398" y2="559" stroke="#16a34a" stroke-width="3" stroke-linecap="round"/>
<circle cx="390" cy="559" r="4" fill="#ffffff" stroke="#16a34a" stroke-width="2"/>
<text x="404.0" y="566.0" font-family="Arial, sans-serif" font-size="13" font-weight="400" text-anchor="start" fill="#111827">Hive</text>
<text x="490.0" y="536.0" font-family="Arial, sans-serif" font-size="13" font-weight="700" text-anchor="middle" fill="#111827">Sample benchmark e fattore scala</text>
<text x="18" y="300" font-family="Arial, sans-serif" font-size="13" font-weight="700" text-anchor="middle" fill="#111827" transform="rotate(-90 18 300)">Tempo esecuzione</text>
</svg>